<svg xmlns="http://www.w3.org/2000/svg" width="100" height="100" viewBox="0 0 100 100">
  <path d="M 15 15 
           L 30 15 L 30 4 L 70 4 L 70 15 
           L 85 15 
           L 85 30 L 96 30 L 96 70 L 85 70
           L 85 85
           L 70 85 L 70 96 L 30 96 L 30 85
           L 15 85
           L 15 70 L 4 70 L 4 30 L 15 30 Z" 
        fill="white" stroke="#68644e" stroke-width="2.5" stroke-linejoin="round" />
        
  <path d="M 21 21 
           L 32 21 L 32 10 L 68 10 L 68 21 
           L 79 21 
           L 79 32 L 90 32 L 90 68 L 79 68
           L 79 79
           L 68 79 L 68 90 L 32 90 L 32 79
           L 21 79
           L 21 68 L 10 68 L 10 32 L 21 32 Z" 
        fill="none" stroke="#68644e" stroke-width="1" stroke-linejoin="round" />
</svg>
